<svg width="24" height="24" viewBox="0 0 24 24" fill="none" xmlns="http://www.w3.org/2000/svg">
<path d="M23.9971 1.70271C23.9672 1.16632 23.7026 0.675084 23.2712 0.354997C22.5731 -0.16301 21.6046 -0.109006 20.9683 0.483538L17.0984 4.08789C17.122 3.29489 16.6008 2.59499 15.8202 2.39693L11.0939 1.19726C10.2651 0.986873 9.39714 1.01524 8.58381 1.27935L5.3165 2.34021V1.39997C5.3165 1.1411 5.10659 0.931229 4.8478 0.931229H0.468701C0.209859 0.931229 0 1.14115 0 1.39997V9.74983C0 10.0087 0.209906 10.2186 0.468701 10.2186H4.84784C5.10669 10.2186 5.31654 10.0086 5.31654 9.74983V3.32592L8.87331 2.17107C9.51812 1.96167 10.2062 1.93926 10.8633 2.10591L15.5896 3.30558C15.9567 3.39877 16.1959 3.73996 16.1582 4.11695C16.1193 4.5067 15.7946 4.80068 15.4029 4.80068H11.6397C11.3808 4.80068 11.171 5.0106 11.171 5.26941C11.171 5.52828 11.3809 5.73815 11.6397 5.73815H13.1182C13.1358 5.74017 13.1537 5.74143 13.1719 5.74143H15.4964C16.2717 5.74143 17.0111 5.45037 17.5786 4.92195L21.6073 1.16961C21.9127 0.885147 22.3777 0.85927 22.7128 1.10791C22.9199 1.26153 23.0469 1.49733 23.0612 1.75484C23.0756 2.01234 22.9755 2.26075 22.7868 2.4365L17.2368 7.60345C16.854 7.95982 16.3551 8.1561 15.8321 8.1561H8.56853C8.30969 8.1561 8.09983 8.36602 8.09983 8.62484C8.09983 8.8837 8.30974 9.09358 8.56853 9.09358H15.8322C16.5929 9.09358 17.3187 8.80804 17.8756 8.28961L23.4255 3.12266C23.8186 2.75663 24.027 2.23909 23.9971 1.70271ZM4.37914 9.28109H0.937403V1.86875H4.37909V9.28109H4.37914Z" transform="translate(0 13.7817)" fill="#EB5757"/>
<path d="M0.800481 0.137354C0.713341 0.0501128 0.592404 0 0.468701 0C0.345373 0 0.224483 0.0501128 0.137343 0.137354C0.0501557 0.224595 0 0.345494 0 0.468738C0 0.591982 0.0501089 0.712975 0.137343 0.800075C0.224999 0.887269 0.34542 0.937476 0.468701 0.937476C0.592451 0.937476 0.712919 0.887316 0.800481 0.800075C0.887669 0.712928 0.937872 0.591982 0.937872 0.468738C0.937872 0.345494 0.887715 0.224548 0.800481 0.137354Z" transform="translate(6.20898 21.9375)" fill="#EB5757"/>
<path d="M0.800528 0.136886C0.712873 0.0496919 0.591936 0 0.468702 0C0.345421 0 0.224484 0.0496919 0.137343 0.136886C0.0501561 0.224549 0 0.345496 0 0.46874C0 0.591983 0.0501092 0.712506 0.137343 0.800122C0.224999 0.887316 0.345468 0.937478 0.468702 0.937478C0.591982 0.937478 0.712919 0.887316 0.800528 0.800122C0.887669 0.712928 0.937403 0.591983 0.937403 0.46874C0.937403 0.34498 0.887669 0.224549 0.800528 0.136886Z" transform="translate(2.18945 21.4531)" fill="#EB5757"/>
<path d="M7.26504 0H6.75588C4.478 0 2.6248 1.85334 2.6248 4.1314V5.34936C1.15392 5.4913 0 6.73415 0 8.24176C0 9.84421 1.30368 11.1479 2.90601 11.1479H3.0935C3.35235 11.1479 3.56221 10.938 3.56221 10.6792V4.1314C3.56221 2.37032 4.99489 0.937477 6.75588 0.937477H7.26504C7.52388 0.937477 7.73374 0.727555 7.73374 0.468738C7.73374 0.209875 7.52388 0 7.26504 0ZM2.6248 9.40004V10.1904C1.67207 10.0535 0.93745 9.23184 0.93745 8.24171C0.93745 7.25159 1.67207 6.42991 2.6248 6.29302V9.40004Z" transform="translate(2.93262)" fill="#EB5757"/>
<path d="M0.488623 0H0.468701C0.209858 0 0 0.209922 0 0.468738C0 0.727602 0.209905 0.937477 0.468701 0.937477H0.488623C0.747466 0.937477 0.957324 0.727555 0.957324 0.468738C0.957324 0.209875 0.747466 0 0.488623 0Z" transform="translate(11.5303)" fill="#EB5757"/>
<path d="M8.13035 5.34926V4.1314C8.13035 1.85334 6.27715 0 3.99927 0H3.47394C3.2151 0 3.00524 0.209922 3.00524 0.468738C3.00524 0.727602 3.21519 0.937477 3.47399 0.937477H3.99931C5.76026 0.937477 7.19299 2.37027 7.19299 4.1314V11.992C7.19299 12.1515 7.06324 12.2812 6.90382 12.2812H3.41493C3.23108 11.8412 2.79641 11.5312 2.29059 11.5312H1.21804C0.54642 11.5312 0 12.0776 0 12.7493V12.7505C0 13.4222 0.54642 13.9686 1.21804 13.9686H2.29059C2.79622 13.9686 3.23075 13.6589 3.41474 13.2186H6.90377C7.58013 13.2186 8.13035 12.6683 8.13035 11.9919V11.134C9.60123 10.9921 10.7551 9.74923 10.7551 8.24162C10.7551 6.73401 9.60123 5.49126 8.13035 5.34926ZM2.29059 13.0312H1.21804C1.06326 13.0312 0.937403 12.9053 0.937403 12.7505V12.7494C0.937403 12.5946 1.06331 12.4687 1.21804 12.4687H2.29059C2.44537 12.4687 2.57123 12.5946 2.57123 12.7506C2.57123 12.9053 2.44537 13.0312 2.29059 13.0312ZM8.13039 10.1904V9.40004V6.29302C9.08313 6.42991 9.81775 7.25159 9.81775 8.24171C9.81775 9.23184 9.08317 10.0535 8.13039 10.1904Z" transform="translate(10.3096)" fill="#EB5757"/>
<path d="M8.71797 3.38716H8.28053C8.21908 3.1989 8.14338 3.01598 8.05371 2.83934L8.36303 2.53003C8.45092 2.44209 8.50033 2.32288 8.50033 2.1986C8.50033 2.07433 8.45092 1.95502 8.36303 1.86717L7.31969 0.823796C7.13665 0.640736 6.83993 0.640782 6.65684 0.823796L6.34751 1.13305C6.17089 1.04342 5.98798 0.967667 5.79978 0.906256V0.468738C5.79978 0.209875 5.58987 0 5.33108 0H3.8555C3.59666 0 3.3868 0.209922 3.3868 0.468738V0.907615C3.19902 0.96912 3.01663 1.04488 2.84047 1.13446L2.52988 0.823843C2.34684 0.640876 2.05016 0.64083 1.86698 0.823843L0.823638 1.86722C0.735747 1.95512 0.686341 2.07437 0.686341 2.19865C0.686341 2.32292 0.735747 2.44218 0.823638 2.53008L1.13578 2.84225C1.04671 3.01804 0.971434 3.19998 0.910403 3.38721H0.468702C0.209859 3.38721 0 3.59713 0 3.85595V5.33154C0 5.5904 0.209906 5.80028 0.468702 5.80028H0.911809C0.972981 5.98704 1.04822 6.16846 1.13723 6.34384L0.823731 6.65736C0.735841 6.74526 0.686435 6.86452 0.686435 6.98879C0.686435 7.11307 0.735841 7.23232 0.823731 7.32022L1.86707 8.36365C2.05017 8.54666 2.34684 8.54666 2.52998 8.36365L2.84347 8.05012C3.01879 8.13914 3.20019 8.21443 3.38699 8.27561V8.7187C3.38699 8.97757 3.59689 9.18744 3.85569 9.18744H5.33122C5.59006 9.18744 5.79992 8.97752 5.79992 8.7187V8.27697C5.98714 8.21588 6.16906 8.14064 6.34484 8.05153L6.65688 8.36369C6.83998 8.54671 7.13665 8.54671 7.31979 8.36369L8.36313 7.32027C8.45102 7.23233 8.50042 7.11311 8.50042 6.98884C8.50042 6.86456 8.45102 6.74526 8.36308 6.65741L8.05239 6.3467C8.14202 6.17053 8.21777 5.98812 8.27922 5.80033H8.71802C8.97686 5.80033 9.18672 5.5904 9.18672 5.33159V3.85599C9.18667 3.59708 8.97681 3.38716 8.71797 3.38716ZM8.24927 4.86271H7.92353C7.70327 4.86271 7.51113 5.0175 7.46393 5.23225C7.38954 5.56706 7.25801 5.8834 7.07313 6.1725C6.95454 6.35795 6.98088 6.60092 7.1366 6.75656L7.36877 6.98874L6.98834 7.36921L6.75513 7.13599C6.59974 6.98059 6.35721 6.95405 6.17187 7.07214C5.88209 7.25675 5.5654 7.38768 5.23043 7.46142C5.01551 7.50877 4.86247 7.69919 4.86247 7.91924V8.24982H4.32425V7.91835C4.32425 7.69853 4.17149 7.50825 3.95689 7.46067C3.62235 7.38656 3.30604 7.25534 3.01686 7.07078C2.83152 6.95241 2.58876 6.97881 2.43323 7.1344L2.19838 7.36926L1.81795 6.98879L2.05274 6.75398C2.20827 6.59848 2.23481 6.35574 2.1164 6.17029C1.93181 5.8811 1.8007 5.56476 1.72659 5.23014C1.67901 5.01549 1.48874 4.86276 1.26895 4.86276H0.93745V4.32468H1.26712C1.47853 4.32468 1.66476 4.18231 1.7204 3.97839C1.72246 3.97099 1.72429 3.96349 1.72593 3.95594C1.79967 3.62132 1.93054 3.30475 2.11504 3.01513C2.23312 2.82978 2.20654 2.58727 2.05115 2.43187L1.81795 2.19865L2.19838 1.81818L2.43055 2.05042C2.58618 2.20606 2.82913 2.23245 3.01452 2.11389C3.302 1.92999 3.6163 1.79892 3.94869 1.72438C4.16286 1.68102 4.32425 1.49153 4.32425 1.26464V0.937571H4.86233V1.26117C4.86233 1.47874 5.01462 1.67094 5.22636 1.72082C5.22842 1.72133 5.23053 1.7218 5.23259 1.72222C5.56756 1.7962 5.88434 1.9275 6.17403 2.11239C6.35932 2.23057 6.60209 2.20428 6.75757 2.04873L6.9882 1.81814L7.36863 2.1986L7.13871 2.42854C6.98229 2.58502 6.95693 2.83006 7.07566 3.01485C7.25876 3.30222 7.38911 3.61626 7.46327 3.94839C7.5063 4.16295 7.69586 4.32464 7.92302 4.32464H8.24913V4.86271H8.24927Z" transform="translate(7.40527 1.80664)" fill="#EB5757"/>
<path d="M1.7811 0C0.799028 0 0 0.799091 0 1.78124C0 2.7634 0.799028 3.56249 1.7811 3.56249C2.76318 3.56249 3.56221 2.7634 3.56221 1.78124C3.56221 0.799091 2.76318 0 1.7811 0ZM1.7811 2.62501C1.31592 2.62501 0.937403 2.24651 0.937403 1.78124C0.937403 1.31602 1.31587 0.937476 1.7811 0.937476C2.24629 0.937476 2.6248 1.31597 2.6248 1.78124C2.6248 2.24647 2.24629 2.62501 1.7811 2.62501Z" transform="translate(10.2178 4.61914)" fill="#EB5757"/>
<path d="M0.468701 0C0.209859 0 0 0.209922 0 0.468738V3.70312C0 3.96198 0.209859 4.17186 0.468701 4.17186C0.727544 4.17186 0.937403 3.96194 0.937403 3.70312V0.468738C0.937403 0.209922 0.727497 0 0.468701 0Z" transform="translate(2.19043 16.5)" fill="#EB5757"/>
</svg>
