<svg width="24" height="24" viewBox="0 0 24 24" fill="none" xmlns="http://www.w3.org/2000/svg">
<path d="M23.069 11.3885L12.7991 1.11861C12.0885 0.408017 11.1052 0 10.0995 0H2.18184C0.97906 0 0 0.978495 0 2.18184V10.0989C0 11.1185 0.397382 12.0773 1.11861 12.799L11.3885 23.0689C11.9894 23.6692 12.7884 24 13.6364 24C14.4844 24 15.2834 23.6692 15.8842 23.0689L23.0689 15.8842C23.6698 15.2845 24 14.486 24 13.6364C24 12.7868 23.6698 11.9883 23.069 11.3885ZM22.2977 15.113L15.113 22.2976C14.3225 23.086 12.9503 23.086 12.1599 22.2976L1.8899 12.0277C1.37429 11.5121 1.0909 10.8271 1.0909 10.0989V2.18184C1.0909 1.58047 1.57991 1.09094 2.18179 1.09094H10.0995C10.8175 1.09094 11.5206 1.38232 12.0277 1.88995L22.2976 12.1598C22.6918 12.554 22.9092 13.0781 22.9092 13.6364C22.9092 14.1946 22.6918 14.7187 22.2977 15.113Z" fill="#EB5757"/>
<path d="M2.85941 3.6312C2.96593 3.73771 3.10548 3.791 3.24508 3.791C3.38464 3.791 3.52419 3.73771 3.63076 3.6312C3.84384 3.41811 3.84384 3.07294 3.63076 2.85991L2.85926 2.08841L3.63076 1.31676L4.78772 2.47424C5.00081 2.68732 5.34598 2.68732 5.55901 2.47424C5.7721 2.26115 5.7721 1.91598 5.55901 1.70294L4.01638 0.159801C3.9141 0.0575285 3.77563 0 3.63071 0C3.48578 0 3.34731 0.0575285 3.24503 0.159801L0.159814 3.24558C-0.0532715 3.45866 -0.0532715 3.80383 0.159814 4.01687L1.70245 5.5595C1.80897 5.66602 1.94857 5.7193 2.08812 5.7193C2.22767 5.7193 2.36722 5.66602 2.47379 5.5595C2.68688 5.34641 2.68688 5.00124 2.47379 4.78821L1.31683 3.63125L2.08807 2.85985L2.85941 3.6312Z" transform="translate(9.98926 9.98926)" fill="#EB5757"/>
<path d="M4.01633 0.159814C3.80324 -0.0532713 3.45807 -0.0532713 3.24503 0.159814L0.159814 3.24503C-0.0532715 3.45811 -0.0532715 3.80328 0.159814 4.01632L1.70245 5.55946C1.80897 5.66598 1.94857 5.71926 2.08812 5.71926C2.22767 5.71926 2.36722 5.66598 2.47379 5.55946C2.68688 5.34637 2.68688 5.0012 2.47379 4.78817L1.31683 3.6307L2.08812 2.85941L2.85941 3.6307C2.96593 3.73721 3.10553 3.7905 3.24509 3.7905C3.38464 3.7905 3.52419 3.73721 3.63076 3.6307C3.84384 3.41761 3.84384 3.07244 3.63076 2.85941L2.85946 2.08812L3.63076 1.31683L4.78772 2.47379C5.00081 2.68687 5.34598 2.68687 5.55901 2.47379C5.7721 2.2607 5.7721 1.91553 5.55901 1.7025L4.01633 0.159814Z" transform="translate(13.0752 13.0747)" fill="#EB5757"/>
<path d="M3.63071 3.6248C3.84379 3.41172 3.84379 3.06655 3.63071 2.85351L2.85941 2.08181L3.63071 1.31037L4.78767 2.46733C5.00075 2.68042 5.34593 2.68042 5.55896 2.46733C5.77205 2.25425 5.77205 1.90908 5.55896 1.69604L4.01632 0.153409C3.81178 -0.0511364 3.44958 -0.0511364 3.24503 0.153409L1.70322 1.69548C1.70322 1.69548 1.70271 1.69573 1.7024 1.69599C1.70214 1.69625 1.70214 1.6965 1.70214 1.6965L0.159814 3.23913C-0.0532715 3.45222 -0.0532715 3.79739 0.159814 4.01042C0.266332 4.11694 0.405934 4.17022 0.545486 4.17022C0.685037 4.17022 0.824589 4.11694 0.931157 4.01042L2.08817 2.85321L2.85941 3.6248C2.96593 3.73132 3.10553 3.78461 3.24508 3.78461C3.38459 3.78461 3.52414 3.73132 3.63071 3.6248Z" transform="translate(3.81836 3.82471)" fill="#EB5757"/>
<path d="M3.72127 3.72177C4.12504 3.70045 4.5011 3.53267 4.78874 3.24503C5.42688 2.60689 5.42688 1.56924 4.78874 0.931104L4.01745 0.159814C3.80436 -0.0532713 3.45919 -0.0532713 3.24616 0.159814L1.71738 1.68803C1.71206 1.69283 1.70675 1.69764 1.70245 1.70239C1.69713 1.7072 1.69284 1.71201 1.68859 1.71733L0.159814 3.24503C-0.0532715 3.45811 -0.0532715 3.80328 0.159814 4.01632C0.3729 4.2294 0.718071 4.2294 0.931106 4.01632L2.08807 2.85936L2.47482 3.24446C2.68683 3.45755 2.68683 3.80379 2.47482 4.01632L1.70245 4.78817C1.48936 5.00069 1.48936 5.34643 1.70245 5.55946C1.80897 5.66598 1.94857 5.71926 2.08812 5.71926C2.22767 5.71926 2.36722 5.66598 2.47379 5.55946L3.24616 4.78761C3.54122 4.49199 3.69994 4.11005 3.72127 3.72177ZM3.63178 1.31672L4.01745 1.70239C4.23054 1.91492 4.23054 2.26116 4.01745 2.47368C3.9141 2.57647 3.77772 2.63349 3.63178 2.63349H3.63071C3.48584 2.63349 3.34945 2.57703 3.24611 2.47317L2.86044 2.08807L3.63178 1.31672Z" transform="translate(6.90332 6.90381)" fill="#EB5757"/>
</svg>
