<svg width="24" height="24" viewBox="0 0 24 24" fill="none" xmlns="http://www.w3.org/2000/svg">
<path d="M18.4 13.6V12.8H16.8V12H17.2V11.2H16.8V10C16.8 9.7791 16.6209 9.6 16.4 9.6H14.8V5.6C14.8 2.5072 12.2928 0 9.2 0C6.1072 0 3.6 2.5072 3.6 5.6V9.6H2C1.7791 9.6 1.6 9.7791 1.6 10V13.2H0.4V14H1.6V16.8H1.2V17.6H1.6V20H0.8V20.8H1.6V21.6H0V22.4H1.6V23.6C1.6 23.8209 1.7791 24 2 24H16.4C16.6209 24 16.8 23.8209 16.8 23.6V19.2H17.2V18.4H16.8V17.2H18V16.4H16.8V13.6H18.4ZM4.4 5.6C4.4 2.94905 6.54905 0.8 9.2 0.8C11.851 0.8 14 2.94905 14 5.6V9.6H12.8V5.6C12.8 3.61175 11.1882 2 9.2 2C7.2118 2 5.6 3.61175 5.6 5.6V9.6H4.4V5.6ZM12 5.6V9.6H6.4V5.6C6.4 4.0536 7.6536 2.8 9.2 2.8C10.7464 2.8 12 4.0536 12 5.6ZM16 23.2H2.4V20.8H4V20H2.4V17.6H4.8V16.8H2.4V14H4V13.2H2.4V10.4H16V23.2Z" transform="translate(2.7998)" fill="#EB5757"/>
<path d="M5.89145 1.19625C5.3684 0.4477 4.5132 0.00125 3.6 0H0.4V0.8H1.6444C1.1044 1.3253 0.7998 2.04665 0.8 2.8C0.8024 3.7148 1.25015 4.57115 2 5.0952V5.2H0.8V6H2V6.8H1.2V7.6H2V8.4H0V9.2H2V10.4H0V11.2H4.8C5.0209 11.2 5.2 11.0209 5.2 10.8V5.0952C6.4676 4.20945 6.7772 2.46385 5.89145 1.19625ZM4.4 10.4H2.8V9.2H4.4V10.4ZM4.4 8.4H2.8V7.6H3.6V6.8H2.8V6H4.4V8.4ZM5.5548 3.2H2.4V4H5.196C5.03485 4.21495 4.8322 4.3953 4.6 4.5304C4.47635 4.6018 4.40015 4.73365 4.4 4.8764V5.2H2.8V4.8764C2.79985 4.73365 2.72365 4.6018 2.6 4.5304C1.64435 3.97655 1.3186 2.7528 1.87245 1.79715C2.22965 1.18085 2.88765 0.801 3.6 0.8C4.693 0.78845 5.58845 1.6652 5.59995 2.7582C5.60155 2.9067 5.5864 3.0549 5.5548 3.2Z" transform="translate(8.40039 11.2002)" fill="#EB5757"/>
<path d="M0.8 0H0V0.8H0.8V0Z" transform="translate(7.59961 13.2002)" fill="#EB5757"/>
<path d="M2.4 0H0V0.8H2.4V0Z" transform="translate(6.40039 18.3999)" fill="#EB5757"/>
<path d="M1.6 0H0V0.8H1.6V0Z" transform="translate(11.5996 12.7998)" fill="#EB5757"/>
<path d="M1.6 0H0V0.8H1.6V0Z" transform="translate(7.59961 15.2002)" fill="#EB5757"/>
<path d="M0.8 0H0V0.8H0.8V0Z" transform="translate(6 15.6001)" fill="#EB5757"/>
<path d="M1.2 0H0V0.8H1.2V0Z" transform="translate(0 19.6001)" fill="#EB5757"/>
<path d="M1.6 0H0V0.8H1.6V0Z" transform="translate(0 16.7998)" fill="#EB5757"/>
<path d="M1.6 0H0V0.8H1.6V0Z" transform="translate(2.40039 11.2002)" fill="#EB5757"/>
<path d="M2.4 0H0V0.8H2.4V0Z" transform="translate(0.799805 14.7998)" fill="#EB5757"/>
<path d="M0.8 0H0V0.8H0.8V0Z" transform="translate(0 13.2002)" fill="#EB5757"/>
<path d="M0.8 0H0V0.8H0.8V0Z" transform="translate(0 11.6001)" fill="#EB5757"/>
<path d="M0.8 0H0V0.8H0.8V0Z" transform="translate(1.2002 21.6001)" fill="#EB5757"/>
<path d="M0.8 0H0V0.8H0.8V0Z" transform="translate(2.40039 16.7998)" fill="#EB5757"/>
<path d="M1.6 0H0V0.8H1.6V0Z" transform="translate(2 18.3999)" fill="#EB5757"/>
<path d="M1.6 0H0V0.8H1.6V0Z" transform="translate(22.4004 12.7998)" fill="#EB5757"/>
<path d="M1.6 0H0V0.8H1.6V0Z" transform="translate(22.4004 19.6001)" fill="#EB5757"/>
<path d="M2 0H1.2H0V0.8H1.2H2H2.8V0H2Z" transform="translate(20.4004 11.2002)" fill="#EB5757"/>
<path d="M2.4 0H0V0.8H2.4V0Z" transform="translate(20 14.3999)" fill="#EB5757"/>
<path d="M2 0H0V0.8H2V0Z" transform="translate(22 21.2002)" fill="#EB5757"/>
<path d="M0.8 0H0V0.8H0.8V0Z" transform="translate(20.4004 21.2002)" fill="#EB5757"/>
<path d="M2.4 0H0V0.8H2.4V0Z" transform="translate(21.5996 16.3999)" fill="#EB5757"/>
<path d="M1.6 0H0V0.8H1.6V0Z" transform="translate(21.2002 18)" fill="#EB5757"/>
<path d="M0.8 0H0V0.8H0.8V0Z" transform="translate(20.7998 19.6001)" fill="#EB5757"/>
<path d="M1.2 0H0V0.8H1.2V0Z" transform="translate(6 11.6001)" fill="#EB5757"/>
</svg>
