<svg width="26" height="24" viewBox="0 0 26 24" fill="none" xmlns="http://www.w3.org/2000/svg">
<path d="M22.5238 8.22192V7.28298L26 7.1217V5.3799L22.5238 5.21862V4.49607H19.8057V1.31007C19.8057 0.588045 19.2174 0 18.4953 0H7.50365C6.78065 0 6.19234 0.587914 6.19234 1.31007V4.49607H3.47532V5.21862L0 5.3799V7.1217L3.47532 7.28298V8.22192H6.19248V10.2461H3.47532V10.9672L0 11.1288V12.8697L3.47532 13.0319V13.9709H6.19248V16.2119H3.47532V16.9345L0 17.0961V18.8375L3.47532 18.9992V19.9381H6.19248V22.6914C6.19248 23.4139 6.78078 24 7.50378 24H18.4953C19.2174 24 19.8057 23.4139 19.8057 22.6914V19.9381H22.5238V18.9992L26 18.8375V17.0961L22.5238 16.9345V16.2119H19.8057V13.9709H22.5238V13.0319L26 12.8697V11.1288L22.5238 10.9672V10.2461H19.8057V8.22192H22.5238ZM25.3106 17.7523V18.1795L21.8344 18.3412V19.2484H19.9142V16.8998H21.8344V17.5911L25.3106 17.7523ZM21.8344 12.3771V13.2829H19.9142V10.934H21.8344V11.6257L25.3106 11.7874V12.216L21.8344 12.3771ZM25.3106 6.03741V6.46509L21.8344 6.62676V7.53345H19.9142V5.18401H21.8344V5.87522L25.3106 6.03741ZM18.4953 23.3106H7.50365C7.16065 23.3106 6.88173 23.0321 6.88173 22.6904V1.31007C6.88173 0.966623 7.16065 0.688076 7.50365 0.688076H18.4952C18.8373 0.688076 19.1162 0.966623 19.1162 1.31007V22.6904C19.1163 23.0321 18.8378 23.3106 18.4953 23.3106ZM0.688343 18.1795V17.7523L4.16458 17.5907V16.8995H6.08525V19.248H4.16458V18.3408L0.688343 18.1795ZM0.688343 12.2149V11.7865L4.16458 11.6248V10.9331H6.08525V13.282H4.16458V12.3762L0.688343 12.2149ZM0.688343 6.46509V6.03741L4.16458 5.87574V5.18453H6.08525V7.53397H4.16458V6.62729L0.688343 6.46509Z" fill="#EB5757"/>
<path d="M0.851276 1.70028C1.32142 1.70028 1.70255 1.31966 1.70255 0.850138C1.70255 0.38062 1.32142 0 0.851276 0C0.381129 0 0 0.38062 0 0.850138C0 1.31966 0.381129 1.70028 0.851276 1.70028Z" transform="translate(7.75195 1.71191)" fill="#EB5757"/>
</svg>
