<svg width="32" height="24" viewBox="0 0 32 24" fill="none" xmlns="http://www.w3.org/2000/svg">
<path d="M1.04213 1.6065C0.976437 1.18087 0.844335 0.777219 0.657494 0.405967C0.728629 0.402011 0.800259 0.4 0.872303 0.4H3.70864C3.78159 0.4 3.85409 0.402075 3.92611 0.406161C3.7529 0.749564 3.62657 1.12076 3.55647 1.51119C3.20272 1.40971 2.82982 1.35526 2.44493 1.35526C1.95217 1.35526 1.47953 1.44411 1.04213 1.6065Z" transform="translate(13.3311 6.94238)" stroke="#EB5757" stroke-width="0.8"/>
<path d="M6.28543 3.3564C6.28543 4.99071 4.96639 6.31279 3.34271 6.31279C1.71904 6.31279 0.4 4.99071 0.4 3.3564C0.4 1.72208 1.71904 0.4 3.34271 0.4C4.96639 0.4 6.28543 1.72208 6.28543 3.3564Z" transform="translate(12.2793)" stroke="#EB5757" stroke-width="0.8"/>
<path d="M5.75708 3.09226C5.75708 4.58056 4.55621 5.78452 3.07742 5.78452C2.74856 5.78452 2.43431 5.72324 2.14259 5.61282C1.95811 4.46912 1.31414 3.48156 0.411338 2.83979C0.538361 1.46972 1.68401 0.4 3.07742 0.4C4.55626 0.4 5.75708 1.60337 5.75708 3.09226Z" transform="translate(17.7959 6.25537)" stroke="#EB5757" stroke-width="0.8"/>
<path d="M0.4 3.09226C0.4 1.60369 1.60081 0.4 3.07997 0.4C4.55026 0.4 5.74694 1.59135 5.75921 3.06932C5.05198 3.67348 4.54601 4.50736 4.35609 5.4562C3.97537 5.6647 3.5418 5.7842 3.07997 5.7842C1.60076 5.7842 0.4 4.58077 0.4 3.09226Z" transform="translate(7.29395 6.25537)" stroke="#EB5757" stroke-width="0.8"/>
<path d="M3.07703 0.4H3.07711C4.55592 0.4 5.75676 1.60367 5.75676 3.09226C5.75676 4.58085 4.55592 5.78452 3.07711 5.78452C2.74841 5.78452 2.434 5.72309 2.14232 5.61276C1.9581 4.4688 1.31413 3.48123 0.411341 2.83947C0.538383 1.46962 1.68405 0.399736 3.07703 0.4Z" transform="translate(22.873 3.14404)" stroke="#EB5757" stroke-width="0.8"/>
<path d="M5.75994 3.09258C5.75994 4.58119 4.55854 5.78516 3.07997 5.78516C1.6014 5.78516 0.4 4.58119 0.4 3.09258C0.4 1.60397 1.6014 0.4 3.07997 0.4C4.55854 0.4 5.75994 1.60397 5.75994 3.09258Z" transform="translate(12.6982 9.44775)" stroke="#EB5757" stroke-width="0.8"/>
<path d="M3.74685 7.72512V7.1576C3.74685 5.0674 2.48718 3.2684 0.690536 2.48243C1.14698 1.89254 1.45052 1.17854 1.54318 0.4H3.76533C5.71677 0.4 7.30799 1.99538 7.30741 3.95938V3.9595V6.91286L7.29866 6.91732L7.2976 6.91787C7.24444 6.94517 5.97965 7.57592 3.74685 7.72512Z" transform="translate(18.415 12.6504)" stroke="#EB5757" stroke-width="0.8"/>
<path d="M7.29878 6.91678L7.29878 6.91677L7.29636 6.91802C7.24408 6.94504 5.97929 7.57589 3.74654 7.72485V7.15728C3.74654 5.06706 2.4871 3.26829 0.690447 2.48238C1.14674 1.89255 1.45042 1.17858 1.54294 0.4H3.76437C5.71645 0.4 7.30773 1.99572 7.30773 3.9595V6.91223L7.29878 6.91678Z" transform="translate(23.4912 9.53906)" stroke="#EB5757" stroke-width="0.8"/>
<path d="M4.26884 7.69698C3.12507 7.59947 1.83176 7.36835 0.4 6.92336V3.95982C0.4 1.99574 1.99158 0.4 3.94368 0.4H6.47346C6.56626 1.17812 6.8696 1.89234 7.32593 2.48239C5.52873 3.26854 4.26947 5.06757 4.26884 7.15749V7.1576V7.69698Z" transform="translate(5.12305 12.6504)" stroke="#EB5757" stroke-width="0.8"/>
<path d="M10.0988 3.95933V3.9595V6.91302L10.0902 6.91741C10.0902 6.91743 10.0902 6.91745 10.0901 6.91747C10.0263 6.94986 8.40905 7.75659 5.58955 7.75659C4.15823 7.75659 2.41356 7.54869 0.4 6.92304V3.9595C0.4 1.99636 1.9916 0.4 3.94367 0.4H6.55708C8.50851 0.4 10.0997 1.99567 10.0988 3.95933Z" transform="translate(10.5283 15.8438)" stroke="#EB5757" stroke-width="0.8"/>
<path d="M4.01481 5.61302C3.72293 5.72341 3.40866 5.78484 3.07997 5.78484C1.60081 5.78484 0.4 4.58114 0.4 3.09258C0.4 1.60367 1.60084 0.4 3.07997 0.4C4.47303 0.4 5.61867 1.46995 5.74573 2.83948C4.8429 3.48133 4.19925 4.46916 4.01481 5.61302Z" transform="translate(2.16992 3.24268)" stroke="#EB5757" stroke-width="0.8"/>
<path d="M3.9612 7.72521C1.73396 7.57682 0.469474 6.94797 0.408497 6.91719C0.408364 6.91712 0.408237 6.91706 0.408115 6.917L0.4 6.91287V3.95982C0.4 1.99607 1.99125 0.400319 3.94336 0.4C3.94338 0.4 3.9434 0.4 3.94342 0.4H6.16509C6.25759 1.17879 6.56122 1.89296 7.01735 2.48289C5.22038 3.2686 3.9612 5.06768 3.9612 7.15761V7.72521Z" transform="translate(0 9.6377)" stroke="#EB5757" stroke-width="0.8"/>
<path d="M3.28762 4.37653C2.88342 4.37653 2.47707 4.46594 2.13675 4.57163C1.91691 3.57025 1.32552 2.68628 0.475544 2.09588C0.864408 1.09004 1.83902 0.4 2.94303 0.4C3.50981 0.4 4.04651 0.576886 4.4955 0.906196C4.30448 1.40318 4.20515 1.93441 4.20515 2.46933C4.20515 3.24816 4.41467 4.00912 4.80485 4.67339C4.32447 4.47805 3.8104 4.37653 3.28762 4.37653Z" transform="translate(7.03613 0.837891)" stroke="#EB5757" stroke-width="0.8"/>
<path d="M1.07771 2.46949V2.46933C1.07771 1.98709 0.998102 1.51452 0.840996 1.06037C1.32096 0.636589 1.93794 0.4 2.58538 0.4C3.60032 0.4 4.51038 0.983529 4.95132 1.87144C3.99096 2.46289 3.31802 3.42296 3.09112 4.52273C2.77275 4.44275 2.39225 4.37749 1.99588 4.37749C1.47751 4.37749 0.96318 4.47992 0.482296 4.67591C0.481366 4.67471 0.480438 4.6735 0.47951 4.67229C0.871767 4.00634 1.0774 3.25346 1.07771 2.46949Z" transform="translate(18.8271 0.836914)" stroke="#EB5757" stroke-width="0.8"/>
</svg>
