<svg width="20" height="24" viewBox="0 0 20 24" fill="none" xmlns="http://www.w3.org/2000/svg">
<path d="M19.6 23.2H18.4V21.6H16.4V17.5112C16.4 16.4312 15.8632 15.428 14.9644 14.8288L10.7212 12L14.9644 9.1712C15.8632 8.572 16.4 7.5688 16.4 6.4888V2.4H18.4V0.8H19.6C19.8208 0.8 20 0.6212 20 0.4C20 0.1788 19.8208 0 19.6 0H18.4H18H2H1.6H0.4C0.1792 0 0 0.1788 0 0.4C0 0.6212 0.1792 0.8 0.4 0.8H1.6V2.4H3.6V6.4888C3.6 7.5688 4.1368 8.572 5.0356 9.1712L9.2788 12L5.0356 14.8288C4.1368 15.428 3.6 16.4312 3.6 17.5112V21.6H1.6V23.2H0.4C0.1792 23.2 0 23.3788 0 23.6C0 23.8212 0.1792 24 0.4 24H1.6H2H18H18.4H19.6C19.8208 24 20 23.8212 20 23.6C20 23.3788 19.8208 23.2 19.6 23.2ZM2.4 1.6V0.8H17.6V1.6H16.4H3.6H2.4ZM5.4792 8.5056C4.8036 8.0548 4.4 7.3008 4.4 6.4888V2.4H15.6V6.4888C15.6 7.3008 15.1964 8.0548 14.5208 8.5056L10 11.5192L5.4792 8.5056ZM4.4 17.5112C4.4 16.6992 4.8036 15.9452 5.4792 15.4944L10 12.4808L14.5208 15.4944C15.1964 15.9452 15.6 16.6992 15.6 17.5112V21.6H4.4V17.5112ZM2.4 22.4H3.6H16.4H17.6V23.2H2.4V22.4Z" fill="#EB5757"/>
<path d="M1.1668 1.9744C0.9372 1.8212 0.8 1.5648 0.8 1.2888V0.4C0.8 0.1788 0.6208 0 0.4 0C0.1792 0 0 0.1788 0 0.4V1.2888C0 1.8332 0.2704 2.3384 0.7232 2.64L2.5784 3.8768C2.6464 3.922 2.7236 3.944 2.8 3.944C2.9292 3.944 3.056 3.8816 3.1332 3.766C3.2556 3.582 3.206 3.334 3.0224 3.2112L1.1668 1.9744Z" transform="translate(5.2002 5.2002)" fill="#EB5757"/>
<path d="M2.47715 1.30423L0.621949 0.0674289C0.437949 -0.0553711 0.189949 -0.00577089 0.0671489 0.178229C-0.0552511 0.362229 -0.00565097 0.610229 0.177949 0.73303L2.03315 1.96983C2.26315 2.12303 2.40035 2.37903 2.40035 2.65543V3.54423C2.40035 3.76543 2.57955 3.94423 2.80035 3.94423C3.02115 3.94423 3.20035 3.76543 3.20035 3.54423V2.65543C3.20035 2.11063 2.92995 1.60583 2.47715 1.30423Z" transform="translate(11.5996 15.1997)" fill="#EB5757"/>
</svg>
