<svg width="28" height="24" viewBox="0 0 28 24" fill="none" xmlns="http://www.w3.org/2000/svg">
<path d="M26.6 12H26.1333V2.30769C26.1318 1.03385 25.088 0.0015 23.8 0H4.2C2.912 0.0015 1.86818 1.03385 1.86667 2.30769V9.23077H1.4C0.626792 9.23077 0 9.85067 0 10.6154V22.6154C0 23.3801 0.626792 24 1.4 24H19.1333C19.3911 24 19.6 23.7933 19.6 23.5385C19.5985 22.2646 18.5547 21.2323 17.2667 21.2308H15.8667V18.4615H21.4667V22.6154C21.4667 23.3801 22.0935 24 22.8667 24H26.6C27.3732 24 28 23.3801 28 22.6154V13.3846C28 12.6199 27.3732 12 26.6 12ZM10.2667 22.6154C10.2667 22.8703 10.0577 23.0769 9.8 23.0769H1.4C1.14228 23.0769 0.933333 22.8703 0.933333 22.6154V22.1538H10.2667V22.6154ZM10.2667 21.2308H0.933333V10.6154C0.933333 10.3605 1.14228 10.1538 1.4 10.1538H9.8C10.0577 10.1538 10.2667 10.3605 10.2667 10.6154V21.2308ZM17.2667 22.1538C17.8598 22.1545 18.3884 22.5241 18.5869 23.0769H11.1141C11.1694 22.9291 11.1984 22.773 11.2 22.6154V22.1538H17.2667ZM11.2 21.2308V18.4615H12.1333V21.2308H11.2ZM13.0667 21.2308V18.4615H14.9333V21.2308H13.0667ZM21.4667 17.5385H11.2V14.7692H21.4667V17.5385ZM21.4667 13.3846V13.8462H11.2V10.6154C11.1984 10.3964 11.1437 10.181 11.0404 9.98723C11.0474 9.98077 11.0567 9.97892 11.0633 9.972L15.6833 5.40277C15.8623 5.21942 15.8572 4.92721 15.6718 4.75015C15.491 4.57742 15.2043 4.57742 15.0234 4.75015L10.4034 9.31938C10.3922 9.33092 10.3875 9.34569 10.3777 9.35769C10.1967 9.27462 9.99956 9.23135 9.8 9.23077H2.8V2.30769C2.8 1.54298 3.42679 0.923077 4.2 0.923077H23.8C24.5732 0.923077 25.2 1.54298 25.2 2.30769V12H22.8667C22.0935 12 21.4667 12.6199 21.4667 13.3846ZM27.0667 22.6154C27.0667 22.8703 26.8577 23.0769 26.6 23.0769H22.8667C22.6089 23.0769 22.4 22.8703 22.4 22.6154V22.1538H27.0667V22.6154ZM27.0667 21.2308H22.4V13.3846C22.4 13.1297 22.6089 12.9231 22.8667 12.9231H26.6C26.8577 12.9231 27.0667 13.1297 27.0667 13.3846V21.2308Z" fill="#EB5757"/>
<path d="M2.78193 0.13513C2.5997 -0.0450433 2.3043 -0.0450433 2.12206 0.13513L0.142462 2.09298C-0.042921 2.27009 -0.0480545 2.56224 0.131029 2.74559C0.310112 2.92894 0.605512 2.93401 0.790896 2.7569C0.794804 2.75321 0.798595 2.7494 0.802329 2.74559L2.78193 0.787744C2.86523 0.644956 2.69781 0.373514 2.78193 0.13513Z" transform="translate(2.79492 14.7124)" fill="#EB5757"/>
<path d="M2.77049 0.129548C2.58966 -0.0431827 2.30295 -0.0431827 2.12206 0.129548L0.142462 2.08739C-0.0429211 2.26445 -0.0480544 2.55666 0.131029 2.74001C0.310054 2.92335 0.605512 2.92843 0.790895 2.75132C0.794804 2.74762 0.798595 2.74382 0.802329 2.74001L2.78193 0.782162C2.96095 0.598816 2.95588 0.306606 2.77049 0.129548Z" transform="translate(5.5957 14.7192)" fill="#EB5757"/>
<path d="M5.4109 0.129548C5.23007 -0.0431827 4.94336 -0.0431827 4.76247 0.129548L0.14247 4.69878C-0.0429135 4.87584 -0.0480464 5.16805 0.130979 5.35139C0.310004 5.53474 0.605462 5.53982 0.790845 5.36276C0.794753 5.35907 0.798545 5.35526 0.802336 5.35139L5.42234 0.782163C5.60142 0.598817 5.59629 0.306606 5.4109 0.129548Z" transform="translate(13.1094 4.62158)" fill="#EB5757"/>
<path d="M2.11063 0.129591C1.9298 -0.0431971 1.64303 -0.0431971 1.4622 0.129591L0.142463 1.43482C-0.0429206 1.61194 -0.0480548 1.90409 0.131029 2.08744C0.310112 2.27078 0.605513 2.27586 0.790896 2.09874C0.794746 2.09505 0.798595 2.09124 0.802328 2.08744L2.12206 0.782206C2.30114 0.598859 2.29601 0.306707 2.11063 0.129591Z" transform="translate(23.6016 15.9683)" fill="#EB5757"/>
<path d="M0.469006 0H0.46434C0.206623 0.00126923 -0.00127742 0.208962 5.90951e-06 0.463847C0.00128924 0.718731 0.21129 0.924346 0.469006 0.923077C0.726723 0.923077 0.935673 0.716423 0.935673 0.461538C0.935673 0.206654 0.726723 0 0.469006 0Z" transform="translate(13.5391 15.6938)" fill="#EB5757"/>
<path d="M2.33333 0H0.466667C0.20895 0 0 0.206654 0 0.461538C0 0.716423 0.20895 0.923077 0.466667 0.923077H2.33333C2.59105 0.923077 2.8 0.716423 2.8 0.461538C2.8 0.206654 2.59105 0 2.33333 0Z" transform="translate(12.5977 1.8457)" fill="#EB5757"/>
</svg>
