<svg width="123" height="33" viewBox="0 0 123 33" fill="none" xmlns="http://www.w3.org/2000/svg">
<path d="M12.9919 33C10.4695 33 8.02309 32.6657 5.65263 31.9972C3.31257 31.2983 1.42835 30.4019 0 29.308L2.50722 23.7472C3.87479 24.75 5.50068 25.5553 7.38489 26.163C9.2691 26.7707 11.1533 27.0746 13.0375 27.0746C15.1345 27.0746 16.6844 26.7707 17.6873 26.163C18.6902 25.5249 19.1916 24.6892 19.1916 23.6561C19.1916 22.8964 18.8877 22.2735 18.2799 21.7873C17.7025 21.2707 16.9427 20.8605 16.0006 20.5566C15.0889 20.2528 13.8429 19.9185 12.2626 19.5539C9.83133 18.9765 7.84075 18.3992 6.29084 17.8218C4.74092 17.2445 3.40374 16.3177 2.27929 15.0414C1.18523 13.7652 0.638201 12.0635 0.638201 9.93646C0.638201 8.08287 1.13964 6.4116 2.14253 4.92265C3.14542 3.40331 4.64975 2.20304 6.65552 1.32182C8.69169 0.440608 11.1685 0 14.086 0C16.1222 0 18.1127 0.243094 20.0577 0.729281C22.0027 1.21547 23.7046 1.91436 25.1633 2.82597L22.8841 8.43232C19.9362 6.76105 16.9883 5.92541 14.0404 5.92541C11.9739 5.92541 10.4391 6.25967 9.43625 6.92818C8.46376 7.59668 7.97751 8.4779 7.97751 9.57182C7.97751 10.6657 8.53973 11.4862 9.66418 12.0331C10.819 12.5497 12.5665 13.0663 14.9065 13.5829C17.3378 14.1602 19.3284 14.7376 20.8783 15.3149C22.4282 15.8923 23.7502 16.8039 24.8442 18.0497C25.9687 19.2956 26.5309 20.982 26.5309 23.1091C26.5309 24.9323 26.0143 26.6036 24.981 28.1229C23.9781 29.6119 22.4586 30.797 20.4224 31.6782C18.3863 32.5594 15.9094 33 12.9919 33Z" fill="white"/>
<path d="M56.2845 26.5276V32.453H31.577V0.54696H55.6919V6.47237H38.9164V13.4006H53.7317V19.1436H38.9164V26.5276H56.2845Z" fill="white"/>
<path d="M91.4265 0.54696V32.453H85.3636L69.4542 13.0815V32.453H62.1605V0.54696H68.2689L84.1328 19.9185V0.54696H91.4265Z" fill="white"/>
<path d="M109.461 33C106.939 33 104.492 32.6657 102.122 31.9972C99.7817 31.2983 97.8974 30.4019 96.4691 29.308L98.9763 23.7472C100.344 24.75 101.97 25.5553 103.854 26.163C105.738 26.7707 107.622 27.0746 109.507 27.0746C111.604 27.0746 113.153 26.7707 114.156 26.163C115.159 25.5249 115.661 24.6892 115.661 23.6561C115.661 22.8964 115.357 22.2735 114.749 21.7873C114.172 21.2707 113.412 20.8605 112.47 20.5566C111.558 20.2528 110.312 19.9185 108.732 19.5539C106.3 18.9765 104.31 18.3992 102.76 17.8218C101.21 17.2445 99.8728 16.3177 98.7484 15.0414C97.6543 13.7652 97.1073 12.0635 97.1073 9.93646C97.1073 8.08287 97.6087 6.4116 98.6116 4.92265C99.6145 3.40331 101.119 2.20304 103.125 1.32182C105.161 0.440608 107.638 0 110.555 0C112.591 0 114.582 0.243094 116.527 0.729281C118.472 1.21547 120.174 1.91436 121.632 2.82597L119.353 8.43232C116.405 6.76105 113.457 5.92541 110.509 5.92541C108.443 5.92541 106.908 6.25967 105.905 6.92818C104.933 7.59668 104.447 8.4779 104.447 9.57182C104.447 10.6657 105.009 11.4862 106.133 12.0331C107.288 12.5497 109.036 13.0663 111.376 13.5829C113.807 14.1602 115.797 14.7376 117.347 15.3149C118.897 15.8923 120.219 16.8039 121.313 18.0497C122.438 19.2956 123 20.982 123 23.1091C123 24.9323 122.483 26.6036 121.45 28.1229C120.447 29.6119 118.928 30.797 116.892 31.6782C114.855 32.5594 112.379 33 109.461 33Z" fill="white"/>
</svg>
