<svg width="97" height="26" viewBox="0 0 97 26" fill="none" xmlns="http://www.w3.org/2000/svg">
<path d="M10.2457 26C8.25646 26 6.32716 25.7366 4.45777 25.2099C2.61235 24.6593 1.12643 23.953 0 23.0912L1.97724 18.7099C3.05573 19.5 4.33794 20.1344 5.82386 20.6133C7.30978 21.0921 8.7957 21.3315 10.2816 21.3315C11.9353 21.3315 13.1576 21.0921 13.9485 20.6133C14.7394 20.1105 15.1348 19.4521 15.1348 18.6381C15.1348 18.0396 14.8952 17.5488 14.4158 17.1657C13.9605 16.7587 13.3613 16.4355 12.6184 16.1961C11.8994 15.9567 10.9167 15.6934 9.67048 15.4061C7.75316 14.9512 6.18336 14.4963 4.96107 14.0414C3.73877 13.5866 2.68425 12.8564 1.79749 11.8508C0.934694 10.8453 0.503296 9.5046 0.503296 7.82873C0.503296 6.36832 0.898744 5.05157 1.68964 3.87845C2.48053 2.6814 3.66687 1.73573 5.24866 1.04144C6.85442 0.347145 8.80769 0 11.1085 0C12.7142 0 14.284 0.191528 15.8179 0.574585C17.3517 0.957643 18.6939 1.50829 19.8443 2.22652L18.0468 6.64365C15.722 5.32689 13.3973 4.66851 11.0725 4.66851C9.4428 4.66851 8.23249 4.93186 7.4416 5.45856C6.67467 5.98527 6.29121 6.67956 6.29121 7.54144C6.29121 8.40331 6.73459 9.04972 7.62135 9.48066C8.53207 9.88766 9.91015 10.2947 11.7556 10.7017C13.6729 11.1565 15.2427 11.6114 16.465 12.0663C17.6873 12.5212 18.7298 13.2394 19.5926 14.221C20.4794 15.2026 20.9228 16.5313 20.9228 18.2072C20.9228 19.6436 20.5153 20.9604 19.7005 22.1575C18.9096 23.3306 17.7112 24.2643 16.1055 24.9586C14.4997 25.6529 12.5465 26 10.2457 26Z" fill="black" fill-opacity="0.85"/>
<path d="M44.387 20.9006V25.5691H24.9022V0.430938H43.9196V5.09945H30.6901V10.558H42.3738V15.0829H30.6901V20.9006H44.387Z" fill="black" fill-opacity="0.85"/>
<path d="M72.1006 0.430938V25.5691H67.3193L54.7728 10.3066V25.5691H49.0208V0.430938H53.8381L66.3486 15.6934V0.430938H72.1006Z" fill="black" fill-opacity="0.85"/>
<path d="M86.3229 26C84.3337 26 82.4044 25.7366 80.535 25.2099C78.6896 24.6593 77.2037 23.953 76.0772 23.0912L78.0545 18.7099C79.133 19.5 80.4152 20.1344 81.9011 20.6133C83.387 21.0921 84.8729 21.3315 86.3589 21.3315C88.0126 21.3315 89.2349 21.0921 90.0257 20.6133C90.8166 20.1105 91.2121 19.4521 91.2121 18.6381C91.2121 18.0396 90.9724 17.5488 90.4931 17.1657C90.0377 16.7587 89.4386 16.4355 88.6956 16.1961C87.9766 15.9567 86.994 15.6934 85.7477 15.4061C83.8304 14.9512 82.2606 14.4963 81.0383 14.0414C79.816 13.5866 78.7615 12.8564 77.8747 11.8508C77.0119 10.8453 76.5805 9.5046 76.5805 7.82873C76.5805 6.36832 76.976 5.05157 77.7669 3.87845C78.5578 2.6814 79.7441 1.73573 81.3259 1.04144C82.9317 0.347145 84.8849 0 87.1857 0C88.7915 0 90.3613 0.191528 91.8951 0.574585C93.429 0.957643 94.7711 1.50829 95.9215 2.22652L94.124 6.64365C91.7993 5.32689 89.4745 4.66851 87.1498 4.66851C85.5201 4.66851 84.3097 4.93186 83.5188 5.45856C82.7519 5.98527 82.3685 6.67956 82.3685 7.54144C82.3685 8.40331 82.8118 9.04972 83.6986 9.48066C84.6093 9.88766 85.9874 10.2947 87.8328 10.7017C89.7501 11.1565 91.3199 11.6114 92.5422 12.0663C93.7645 12.5212 94.8071 13.2394 95.6699 14.221C96.5566 15.2026 97 16.5313 97 18.2072C97 19.6436 96.5926 20.9604 95.7777 22.1575C94.9868 23.3306 93.7885 24.2643 92.1827 24.9586C90.577 25.6529 88.6237 26 86.3229 26Z" fill="black" fill-opacity="0.85"/>
</svg>
